<svg width="60" height="60" viewBox="0 0 60 60" fill="none" xmlns="http://www.w3.org/2000/svg">
<g filter="url(#filter0_d_6_43)">
<rect x="5" y="4" width="50" height="50" rx="10" fill="#00A884"/>
</g>
<path fill-rule="evenodd" clip-rule="evenodd" d="M28.4167 15.9375C22.0769 15.9375 16.9375 21.0769 16.9375 27.4167C16.9375 30.2084 17.9326 32.7647 19.5887 34.7546C19.8476 35.0658 19.9303 35.4872 19.808 35.8731L18.6388 39.5619L23.3944 38.0638C23.6546 37.9818 23.9352 37.9919 24.1888 38.0924C25.4956 38.6105 26.9214 38.8958 28.4167 38.8958H31.5833C37.9232 38.8958 43.0625 33.7565 43.0625 27.4167C43.0625 21.0769 37.9232 15.9375 31.5833 15.9375H28.4167ZM14.5625 27.4167C14.5625 19.7652 20.7652 13.5625 28.4167 13.5625H31.5833C39.2348 13.5625 45.4375 19.7652 45.4375 27.4167C45.4375 35.0681 39.2348 41.2708 31.5833 41.2708H28.4167C26.7684 41.2708 25.185 40.9825 23.7159 40.4526L18.6261 42.056C17.0977 42.5375 15.6605 41.0979 16.1447 39.5703L16.9187 39.8158L16.1447 39.5703L17.3534 35.757C15.6019 33.437 14.5625 30.5469 14.5625 27.4167Z" fill="white"/>
<path d="M30 23V33" stroke="white" stroke-width="3" stroke-linecap="round"/>
<path d="M25 28L35 28" stroke="white" stroke-width="3" stroke-linecap="round"/>
<defs>
<filter id="filter0_d_6_43" x="0" y="0" width="60" height="60" filterUnits="userSpaceOnUse" color-interpolation-filters="sRGB">
<feFlood flood-opacity="0" result="BackgroundImageFix"/>
<feColorMatrix in="SourceAlpha" type="matrix" values="0 0 0 0 0 0 0 0 0 0 0 0 0 0 0 0 0 0 127 0" result="hardAlpha"/>
<feMorphology radius="1" operator="dilate" in="SourceAlpha" result="effect1_dropShadow_6_43"/>
<feOffset dy="1"/>
<feGaussianBlur stdDeviation="2"/>
<feComposite in2="hardAlpha" operator="out"/>
<feColorMatrix type="matrix" values="0 0 0 0 0 0 0 0 0 0 0 0 0 0 0 0 0 0 0.25 0"/>
<feBlend mode="normal" in2="BackgroundImageFix" result="effect1_dropShadow_6_43"/>
<feBlend mode="normal" in="SourceGraphic" in2="effect1_dropShadow_6_43" result="shape"/>
</filter>
</defs>
</svg>
