<svg width="60" height="60" viewBox="0 0 60 60" fill="none" xmlns="http://www.w3.org/2000/svg">
<g filter="url(#filter0_d_23_182)">
<rect x="5" y="4" width="50" height="50" rx="10" fill="#00A884"/>
</g>
<path fill-rule="evenodd" clip-rule="evenodd" d="M23 26C23 23.7909 24.7909 22 27 22C29.2091 22 31 23.7909 31 26V27C31 28.2145 30.4587 29.3026 29.6043 30.0361C32.779 30.4186 34 33.1718 34 36C34 36.5523 33.5523 37 33 37H21C20.4477 37 20 36.5523 20 36C20 33.1718 21.221 30.4186 24.3957 30.0361C23.5413 29.3026 23 28.2145 23 27V26ZM29.5 26V27C29.5 28.3807 28.3807 29.5 27 29.5C25.6193 29.5 24.5 28.3807 24.5 27V26C24.5 24.6193 25.6193 23.5 27 23.5C28.3807 23.5 29.5 24.6193 29.5 26ZM25 31.5H29C31.2877 31.5 32.5 33.432 32.5 35.5H21.5C21.5 33.432 22.7123 31.5 25 31.5Z" fill="white"/>
<path fill-rule="evenodd" clip-rule="evenodd" d="M17 44C14.7909 44 13 42.2091 13 40V18C13 15.7909 14.7909 14 17 14H42C44.2091 14 46 15.7909 46 18V40C46 42.2091 44.2091 44 42 44H17ZM44 40L44 18C44 16.8954 43.1046 16 42 16H40.4649C40.8052 16.5883 41 17.2714 41 18L41 40C41 40.7286 40.8052 41.4117 40.4649 42H42C43.1046 42 44 41.1046 44 40ZM37 42C38.1046 42 39 41.1046 39 40L39 18C39 16.8954 38.1046 16 37 16L17 16C15.8954 16 15 16.8954 15 18L15 40C15 41.1046 15.8954 42 17 42H37Z" fill="white"/>
<defs>
<filter id="filter0_d_23_182" x="0" y="0" width="60" height="60" filterUnits="userSpaceOnUse" color-interpolation-filters="sRGB">
<feFlood flood-opacity="0" result="BackgroundImageFix"/>
<feColorMatrix in="SourceAlpha" type="matrix" values="0 0 0 0 0 0 0 0 0 0 0 0 0 0 0 0 0 0 127 0" result="hardAlpha"/>
<feMorphology radius="1" operator="dilate" in="SourceAlpha" result="effect1_dropShadow_23_182"/>
<feOffset dy="1"/>
<feGaussianBlur stdDeviation="2"/>
<feComposite in2="hardAlpha" operator="out"/>
<feColorMatrix type="matrix" values="0 0 0 0 0 0 0 0 0 0 0 0 0 0 0 0 0 0 0.25 0"/>
<feBlend mode="normal" in2="BackgroundImageFix" result="effect1_dropShadow_23_182"/>
<feBlend mode="normal" in="SourceGraphic" in2="effect1_dropShadow_23_182" result="shape"/>
</filter>
</defs>
</svg>
